/* XPM */
static char * connection_xpm[] = {
"48 48 390 2",
"  	c None",
". 	c #8C8A8C",
"+ 	c #737573",
"@ 	c #636563",
"# 	c #6B6D6B",
"$ 	c #848284",
"% 	c #949694",
"& 	c #ADAEAD",
"* 	c #BDBEBD",
"= 	c #C6C3C6",
"- 	c #CECBCE",
"; 	c #B5B6B5",
"> 	c #63656B",
", 	c #A5A2A5",
"' 	c #CECFCE",
") 	c #D6D3D6",
"! 	c #DEDBDE",
"~ 	c #BDBABD",
"{ 	c #7B7D84",
"] 	c #9CA2A5",
"^ 	c #949294",
"/ 	c #A5A6A5",
"( 	c #DEDFDE",
"_ 	c #E7E3E7",
": 	c #B5B2B5",
"< 	c #737984",
"[ 	c #9C9E9C",
"} 	c #EFEBEF",
"| 	c #EFEFEF",
"1 	c #9C9A9C",
"2 	c #F7F7F7",
"3 	c #84868C",
"4 	c #636163",
"5 	c #7B828C",
"6 	c #737184",
"7 	c #848694",
"8 	c #84829C",
"9 	c #6B6973",
"0 	c #7B7984",
"a 	c #9C9EA5",
"b 	c #737173",
"c 	c #FFFBFF",
"d 	c #9C9AA5",
"e 	c #73717B",
"f 	c #5A616B",
"g 	c #8C8E94",
"h 	c #7B7D8C",
"i 	c #8C8EA5",
"j 	c #A5A6BD",
"k 	c #B5B2D6",
"l 	c #B5B2CE",
"m 	c #ADAECE",
"n 	c #A5A2C6",
"o 	c #8C8AB5",
"p 	c #7B799C",
"q 	c #5A5D63",
"r 	c #A5AAAD",
"s 	c #525152",
"t 	c #393C39",
"u 	c #424542",
"v 	c #FFFFFF",
"w 	c #73757B",
"x 	c #A5A6B5",
"y 	c #B5B2C6",
"z 	c #CECBDE",
"A 	c #BDBED6",
"B 	c #9C9ABD",
"C 	c #8486AD",
"D 	c #8482AD",
"E 	c #8482B5",
"F 	c #7B79A5",
"G 	c #52595A",
"H 	c #636973",
"I 	c #7B7D7B",
"J 	c #5A5D5A",
"K 	c #ADAAAD",
"L 	c #9C9AB5",
"M 	c #848684",
"N 	c #B5B6BD",
"O 	c #CECBD6",
"P 	c #D6D7E7",
"Q 	c #DEDFEF",
"R 	c #B5B6CE",
"S 	c #A5A2BD",
"T 	c #9492AD",
"U 	c #8C8AAD",
"V 	c #849AC6",
"W 	c #848EBD",
"X 	c #7B7DAD",
"Y 	c #525D6B",
"Z 	c #94969C",
"` 	c #6B696B",
" .	c #EFEFF7",
"..	c #D6D7DE",
"+.	c #C6C3CE",
"@.	c #ADAAB5",
"#.	c #9496AD",
"$.	c #8C8AA5",
"%.	c #949EBD",
"&.	c #9CB2CE",
"*.	c #9CC3DE",
"=.	c #A5D3EF",
"-.	c #A5EBFF",
";.	c #94E7FF",
">.	c #84B2DE",
",.	c #7B7DB5",
"'.	c #4A5563",
").	c #8C929C",
"!.	c #C6C7C6",
"~.	c #8C8E8C",
"{.	c #ADAEB5",
"].	c #94929C",
"^.	c #9492A5",
"/.	c #8C92AD",
"(.	c #9CAEC6",
"_.	c #ADC7D6",
":.	c #BDE3EF",
"<.	c #C6F7FF",
"[.	c #C6FBFF",
"}.	c #BDF7FF",
"|.	c #B5F3FF",
"1.	c #ADEFFF",
"2.	c #8CBAE7",
"3.	c #4A5163",
"4.	c #BDBEC6",
"5.	c #F7F7FF",
"6.	c #94A6BD",
"7.	c #9CBACE",
"8.	c #A5D3E7",
"9.	c #B5EBF7",
"0.	c #CEFFFF",
"a.	c #C6FFFF",
"b.	c #BDFBFF",
"c.	c #ADF3FF",
"d.	c #A5EFFF",
"e.	c #9CEBFF",
"f.	c #94E3FF",
"g.	c #8CC7EF",
"h.	c #7B79BD",
"i.	c #6B697B",
"j.	c #4A515A",
"k.	c #848A94",
"l.	c #F7F3F7",
"m.	c #A5A2AD",
"n.	c #949EAD",
"o.	c #8CAEC6",
"p.	c #8CBED6",
"q.	c #8CD3EF",
"r.	c #9CE7FF",
"s.	c #B5F7FF",
"t.	c #8CD3F7",
"u.	c #6B6D84",
"v.	c #4A4D5A",
"w.	c #E7E3EF",
"x.	c #B5B2BD",
"y.	c #84B2D6",
"z.	c #7BD7FF",
"A.	c #84DBFF",
"B.	c #8CDFFF",
"C.	c #8CE3FF",
"D.	c #84DFFF",
"E.	c #6B6D94",
"F.	c #737584",
"G.	c #A5A6AD",
"H.	c #C6C7D6",
"I.	c #84A6BD",
"J.	c #7B8ACE",
"K.	c #6B6D7B",
"L.	c #ADAEBD",
"M.	c #8C9EB5",
"N.	c #73D3FF",
"O.	c #7BDBFF",
"P.	c #738ECE",
"Q.	c #7371AD",
"R.	c #636573",
"S.	c #9C9EB5",
"T.	c #E7E7F7",
"U.	c #6BD3FF",
"V.	c #73D7FF",
"W.	c #739EDE",
"X.	c #9496B5",
"Y.	c #DEDBE7",
"Z.	c #73BEEF",
"`.	c #73A2DE",
" +	c #7371C6",
".+	c #52596B",
"++	c #9C9AC6",
"@+	c #9496C6",
"#+	c #C6C3D6",
"$+	c #ADAAC6",
"%+	c #73AEDE",
"&+	c #6BCFFF",
"*+	c #6BB6EF",
"=+	c #D6D7D6",
"-+	c #9C9ACE",
";+	c #9C9AD6",
">+	c #BDBAD6",
",+	c #7BA2CE",
"'+	c #63CBFF",
")+	c #63CFFF",
"!+	c #63B2F7",
"~+	c #6B6DC6",
"{+	c #6B7173",
"]+	c #9C9AAD",
"^+	c #9492D6",
"/+	c #C6C7DE",
"(+	c #8496BD",
"_+	c #5AC7FF",
":+	c #5ACBFF",
"<+	c #949A9C",
"[+	c #6B6D73",
"}+	c #9C9ADE",
"|+	c #8C8ECE",
"1+	c #7B798C",
"2+	c #CECFE7",
"3+	c #52C7FF",
"4+	c #52C3FF",
"5+	c #6B71CE",
"6+	c #6B6994",
"7+	c #424D5A",
"8+	c #ADB2B5",
"9+	c #9496DE",
"0+	c #73758C",
"a+	c #9496BD",
"b+	c #5AB2EF",
"c+	c #4ABEFF",
"d+	c #6382D6",
"e+	c #5A6163",
"f+	c #8C8EB5",
"g+	c #8C8EBD",
"h+	c #7B7994",
"i+	c #8486C6",
"j+	c #ADAACE",
"k+	c #63A6DE",
"l+	c #4AC3FF",
"m+	c #42BAFF",
"n+	c #5A82DE",
"o+	c #6B69AD",
"p+	c #63697B",
"q+	c #5A5D6B",
"r+	c #525963",
"s+	c #73718C",
"t+	c #8C8ACE",
"u+	c #8C8EAD",
"v+	c #ADAED6",
"w+	c #6B96CE",
"x+	c #42BEFF",
"y+	c #39B6FF",
"z+	c #528EE7",
"A+	c #6B69B5",
"B+	c #52555A",
"C+	c #5A6173",
"D+	c #8C9294",
"E+	c #5A6573",
"F+	c #737594",
"G+	c #8482BD",
"H+	c #8C8AD6",
"I+	c #B5B6DE",
"J+	c #738AC6",
"K+	c #39BAFF",
"L+	c #42AEFF",
"M+	c #5A8ADE",
"N+	c #6365B5",
"O+	c #CECFD6",
"P+	c #8C8AC6",
"Q+	c #9492C6",
"R+	c #31B2FF",
"S+	c #31B6FF",
"T+	c #63AEEF",
"U+	c #7BA6DE",
"V+	c #8486CE",
"W+	c #6B6DCE",
"X+	c #63659C",
"Y+	c #9C9ECE",
"Z+	c #42A2EF",
"`+	c #29B2FF",
" @	c #42B6FF",
".@	c #7BB2EF",
"+@	c #949ED6",
"@@	c #7B7DCE",
"#@	c #6365A5",
"$@	c #63657B",
"%@	c #394552",
"&@	c #7375A5",
"*@	c #4A96DE",
"=@	c #21AEFF",
"-@	c #29AEFF",
";@	c #39B2FF",
">@	c #63BAF7",
",@	c #94B6E7",
"'@	c #7B79CE",
")@	c #6B69C6",
"!@	c #636594",
"~@	c #63616B",
"{@	c #424D52",
"]@	c #313C4A",
"^@	c #A5A2CE",
"/@	c #528AD6",
"(@	c #18AAFF",
"_@	c #21AAFF",
":@	c #4AB6FF",
"<@	c #94C3F7",
"[@	c #ADB6E7",
"}@	c #8C8ED6",
"|@	c #7371CE",
"1@	c #5A5DBD",
"2@	c #4A4DB5",
"3@	c #63619C",
"4@	c #212C42",
"5@	c #42495A",
"6@	c #7B797B",
"7@	c #7375BD",
"8@	c #6382C6",
"9@	c #10A6FF",
"0@	c #18A6FF",
"a@	c #29AAFF",
"b@	c #73C3FF",
"c@	c #B5CFEF",
"d@	c #B5B2DE",
"e@	c #8482CE",
"f@	c #6361C6",
"g@	c #5255BD",
"h@	c #5251B5",
"i@	c #6361A5",
"j@	c #394152",
"k@	c #6B717B",
"l@	c #9496CE",
"m@	c #7B7DBD",
"n@	c #089EFF",
"o@	c #08A2FF",
"p@	c #9CD3FF",
"q@	c #D6D3EF",
"r@	c #7375C6",
"s@	c #6365C6",
"t@	c #5A5DC6",
"u@	c #6361AD",
"v@	c #8482C6",
"w@	c #84BAEF",
"x@	c #D6E7FF",
"y@	c #C6C7E7",
"z@	c #9492CE",
"A@	c #6B69CE",
"B@	c #6365CE",
"C@	c #6365BD",
"D@	c #A5A6CE",
"E@	c #7B7DC6",
"F@	c #CECFDE",
"G@	c #6B6DBD",
"H@	c #7B79AD",
"I@	c #CECBE7",
"J@	c #9C9ED6",
"K@	c #E7E7E7",
"L@	c #ADAAD6",
"M@	c #8486B5",
"N@	c #7B7D9C",
"O@	c #63696B",
"P@	c #9492BD",
"Q@	c #D6D3DE",
"R@	c #BDBEDE",
"S@	c #A5A2D6",
"T@	c #848294",
"U@	c #B5B6D6",
"V@	c #8C8ABD",
"W@	c #52515A",
"X@	c #424952",
"Y@	c #A5A6C6",
"Z@	c #C6C3DE",
"`@	c #8486BD",
" #	c #E7E7EF",
".#	c #BDBECE",
"+#	c #737194",
"@#	c #73719C",
"##	c #9C9EC6",
"$#	c #C6C7CE",
"%#	c #313C52",
"&#	c #7B8284",
"*#	c #6B698C",
"=#	c #9C9EBD",
"-#	c #6B6D8C",
";#	c #9492B5",
">#	c #BDBACE",
",#	c #31384A",
"'#	c #737D84",
")#	c #5A656B",
"!#	c #8482A5",
"~#	c #63658C",
"{#	c #525563",
"]#	c #5A595A",
"^#	c #424552",
"/#	c #39495A",
"                        . + @ @ # $                                                             ",
"                        % & * = - ;   >                                                         ",
"                    , & ; * = - ' ) ! ~ @ { ]                                                   ",
"                ^ / & ; * = - ' ) ! ( _ : @ < ]                                                 ",
"              [ / & ; * = - ' ) ! ( _ } | 1 @ < ,                                               ",
"            [ / & ; * = - ' ) ! ( _ } | 2 * 3 4 5                               6 7 8 9 0 a     ",
"          [ / % b % = - ' ) ! ( _ } | 2 c ' d e f g                   h i j k l m n o p q 5 r   ",
"        1 / & s t u [ ' ) ! ( _ } | 2 c v ' d i q >       w g x y z z A m B o C D E E F G H a   ",
"      ^ / & ; I u s J K ! ( _ } | 2 c v v ' d L M a N O P Q z R S T U U C C C D E V W X G Y Z   ",
"      / & ; * ~ @ J ` b ~ _ } | 2 c v ( ) ) (  .} ..+.@.#.i i $.U U U C %.&.*.=.-.;.>.,.4 '.).  ",
"    1 & ; * = - !.I b I ~.( | 2 c v v & c - {.d ].^.^.^.i i $./.(._.:.<.[.}.|.1.-.;.2.,.9 3.g   ",
"    & ; * = - ' ) ) ~.M ^ ! 2 c v v v 4.5.Z Z ].^.^.^.6.7.8.9.[.0.0.0.a.b.}.c.d.e.f.g.h.i.j.k.  ",
"[ . ; * = - ' ) ! ( ( : ; l.c v v v v 4.c m.n.o.p.q.r.e.1.c.s.}.[.[.[.b.}.|.1.-.r.f.t.h.u.v.5   ",
"^ , * = - ' ) ! ( _ } | 2 c v v v v v - w.x.y.z.A.B.f.e.-.1.|.s.}.}.}.s.|.1.d.e.;.C.D.h.E.v.F.  ",
". / = - ' ) ! ( _ } | 2 c v v v v v c G.O H.I.z.A.B.C.;.e.-.1.1.c.|.|.1.1.d.-.r.f.B.A.J.E.j.K.  ",
". & - ' ) ! ( _ } | 2 c v v v v v v ~ 1 L.P M.N.z.A.B.f.;.e.-.-.d.d.d.d.-.e.r.f.B.D.O.P.Q.j.R.  ",
"^ & ' ) ! ( _ } | 2 c v v v v v v = 1 1 S.T.i U.V.z.A.B.C.f.r.e.e.e.e.e.r.;.f.B.D.A.z.W.Q.G f   ",
"    ) ! ( _ } | 2 c v v v v v v = 1 1 L X.Y.S.Z.N.V.z.A.B.B.f.f.;.;.;.f.f.C.B.D.A.z.N.`. +G .+  ",
"    - ( _ } | 2 c v v v v v l.; 1 1 L ++@+#+$+%+&+N.V.z.A.D.B.B.B.B.B.B.B.D.A.O.z.N.&+*+ +@ '.  ",
"    I ( } | 2 c v v v v v =+, 1 d L ++-+;+l >+,+'+&+U.N.z.z.O.A.A.A.A.A.A.O.z.V.N.&+)+!+~+i.3.  ",
"    {+I ) 2 c v v v l.' / 1 1 ]+B ++-+;+^+T /+(+_+'+)+&+N.N.V.z.z.z.z.z.V.N.N.U.&+'+:+_+~+i.3.  ",
"    <+[+b a : : : / 1 1 d ]+B ++++;+}+|+X 1+2+C 3+_+:+'+)+&+U.U.N.N.N.U.U.&+&+)+'+_+3+4+5+6+7+  ",
"    8+Z 9 b i L L L L B B ++++-+;+9+p 0+,.0+A a+b+4+_+_+:+'+'+)+&+&+&+)+)+'+'+_+_+3+4+c+d+6+j.  ",
"      {.Z [+e+1+f+++++-+-+;+;+g+h+9 6 F i+6 j+n k+c+l+4+3+_+_+_+:+:+:+_+_+_+_+3+4+c+c+m+n+o+j.p+",
"        8+<+< q+r+e+6 6 6 0+K.K.K.s+p E t+` u+v+w+m+c+c+l+4+4+3+3+3+3+3+4+4+l+c+c+x+m+y+z+A+B+C+",
"            G.D+< E+'.j.j.M $.F+F X G+H+C @ 0+I+J+y+K+m+x+c+c+c+c+c+c+c+c+c+x+m+m+y+y+L+M+N+G Y ",
"              : G.<+g { # ' O+S P+t+Q+T i F.K.k E R+S+y+y+K+m+m+m+x+m+m+m+m+K+y+y+T+U+V+W+X+j.f ",
"                  N {.+ K ( ) !.~ / 1 Z i D 9 Y+g+Z+`+R+R+S+y+y+y+y+y+y+y+S+ @.@+@@@~+#@$@B+%@  ",
"                  * <+M ( ( ) !.~ / 1 Z i C &@U @+*@=@-@-@`+`+R+R+R+R+;@>@,@;+'@)@!@~@{@]@7+H   ",
"                  : b ' ( ( ) !.~ / 1 Z i C ,.E ^@/@(@_@_@=@=@=@=@:@<@[@}@|@1@2@3@B+4@5@E+{ Z   ",
"                  6@K ( ( ( ) !.~ / 1 Z i C ,.7@^@8@9@0@0@0@a@b@c@d@e@~+f@g@h@h@i@@ j@k@].r ;   ",
"                  M ( ( ( ( ) !.~ / 1 Z i C ,.7@l@m@n@o@:@p@q@;+r@~+s@t@t@t@t@t@u@R.7+5 K ~ *   ",
"                6@* ( ( ( ( ) !.~ / 1 Z i C ,.r@P+v@w@x@y@t+ +V+z@e@A@B@B@B@B@B@C@R.B+< G.~ *   ",
"                $ : ( ( ( ( ) !.~ / 1 Z i C G+v+D@P+i+E@v@k ..F@-+^@t+|@|@|@|@|@G@H@6 > 3 r ~   ",
"                Z M ( ( ( ( ) !.~ / 1 Z i o z | I@v@J@I@} K@_ ! D@L@J@'@'@'@'@'@7@M@-+N@@ 3 r   ",
"                r {+^ ( ( ( ) !.~ / 1 Z u+A | l.c c c l.| } _ ( A D@k |+t+t+t+t+t+M@D@@+0+f g   ",
"                  Z O@. ' ( ) !.~ / 1 Z P@K@| l.c v c 2 | } _ ( Q@Y+R@S@z@z@z@z@z@M@D@Y+M@> K.  ",
"                  {.g > e+M [ / , % ~.T@j+K@} l.2 c 2 l.| K@_ ( ..D@/+U@Y+Y+Y+Y+Y+M@D@^@V@K.r+  ",
"                    & ].F.Y B+j.W@G X@K.Y@_ } | l.l.l.| } K@( ! Q@U@Z@z D@D@D@D@D@M@D@^@`@K.j.  ",
"                        , D+{ K.E+q+r+> f+( K@} } | } } K@_ ( ..Q@O m Y.l l l l l M@^@Y+X > 5@  ",
"                            r ] 1 Z g [+s+R ( _ K@K@K@K@_ ( ! Q@F@z D@ #H..#.#.#X.P@^@V@+#j.'.  ",
"                                    8+].O@@#R ( ( ( ( ( ( ! Q@Q@F@z ##_ ..$#$+C @+D@P@@#> %#H   ",
"                                      K &#> *#=#Q@! ! ....Q@Q@F@z H.A n a+P@++j+^@X -#> ]@'.3   ",
"                                        / { e+9 +#;#>#Q@Q@F@F@z H.#+A >+U@U@++E 6+9 B+,#'.'#,   ",
"                                          , 3 )#q > $@E.!#;#B a+a+P@;#o H@~#$@> j.j@%@f 5 ]     ",
"                                            K ).< f {#B+q > R.R.R.R.R.> ]#j.^#j@7+Y F.D+r       ",
"                                                G.Z 5 k@f r+3.j.v.5@/#7+3.'.f K.5 ].,           ",
"                                                                                                "};
